# xmcd
#
# Track frame offsets: 
#        150
#        19496
#        46846
#        64571
#        76484
#        111102
#        128116
#        148700
#        175332
#
# Disc length: 2743 seconds
#
# Revision: 0
# Processed by: cddbd v1.5.1PL2 Copyright (c) Steve Scherf et al.
# Submitted via: ExactAudioCopy v0.95b3
#
DISCID=780ab509
DTITLE=Colin John Band - Acousticland Lady
DYEAR=2005
DGENRE=Blues
TTITLE0=11 Months and 29 Days
TTITLE1=Eyesight To The Blind
TTITLE2=O.I.L.
TTITLE3=Son's House
TTITLE4=Down In Mississippi
TTITLE5=Acousticland Lady
TTITLE6=32-20 Blues
TTITLE7=Whipping Post
TTITLE8=Your Local Forecast
EXTD=
EXTT0=
EXTT1=
EXTT2=
EXTT3=
EXTT4=
EXTT5=
EXTT6=
EXTT7=
EXTT8=
PLAYORDER=
